<?xml version="1.0" standalone="no"?>
<!DOCTYPE svg PUBLIC "-//W3C//DTD SVG 20010904//EN"
 "http://www.w3.org/TR/2001/REC-SVG-20010904/DTD/svg10.dtd">
<svg version="1.0" xmlns="http://www.w3.org/2000/svg"
 width="300.000000pt" height="272.000000pt" viewBox="0 0 300.000000 272.000000"
 preserveAspectRatio="xMidYMid meet">
<metadata>
Created by potrace 1.10, written by Peter Selinger 2001-2011
</metadata>
<g transform="translate(0.000000,272.000000) scale(0.100000,-0.100000)"
fill="#000000" stroke="none">
<path d="M2765 2538 c-44 -16 -96 -36 -115 -43 -19 -8 -183 -69 -365 -135
-181 -66 -346 -127 -365 -134 -19 -8 -87 -33 -150 -56 -63 -23 -173 -63 -245
-90 -71 -26 -141 -51 -155 -55 -14 -4 -29 -11 -35 -15 -5 -4 -26 -12 -45 -18
-19 -6 -66 -22 -105 -37 -38 -14 -81 -30 -95 -35 -14 -5 -63 -23 -110 -40 -47
-18 -103 -37 -125 -43 -22 -5 -42 -13 -45 -17 -3 -4 -102 -42 -220 -84 -118
-43 -253 -93 -300 -111 -47 -18 -102 -38 -122 -44 -44 -14 -62 -34 -54 -59 4
-12 97 -63 279 -151 149 -74 273 -134 274 -135 4 -3 25 -116 72 -376 23 -124
49 -265 58 -315 33 -182 35 -190 64 -193 20 -2 32 4 48 26 12 17 21 32 21 35
0 2 35 67 78 143 44 77 94 166 112 199 18 33 39 67 46 75 16 17 -4 35 411
-375 145 -143 270 -263 279 -268 27 -15 51 3 69 51 10 26 30 74 45 107 41 91
84 190 177 410 47 110 91 214 98 230 8 17 73 170 145 340 73 171 160 375 195
455 34 80 95 222 135 315 39 94 81 190 92 215 47 103 88 205 88 220 0 21 -20
40 -39 39 -9 -1 -52 -14 -96 -31z m-25 -193 c0 -2 -23 -57 -51 -122 -28 -65
-71 -165 -96 -223 -24 -58 -52 -123 -62 -145 -35 -77 -101 -233 -101 -238 0
-3 -13 -34 -29 -69 -16 -35 -81 -187 -146 -338 -64 -151 -125 -293 -135 -315
-10 -22 -71 -165 -136 -317 -64 -153 -122 -278 -129 -278 -6 0 -27 17 -46 38
-20 20 -158 158 -307 305 -150 147 -272 272 -272 276 0 5 17 24 38 41 20 18
89 83 152 144 64 61 192 183 285 271 93 88 223 212 289 275 132 126 282 269
421 401 187 177 288 274 299 286 11 12 26 17 26 8z m-334 -34 c-3 -5 -59 -39
-123 -77 -65 -37 -183 -106 -263 -154 -80 -48 -215 -128 -300 -177 -85 -50
-274 -161 -420 -248 -146 -86 -281 -166 -300 -177 -19 -11 -93 -54 -165 -97
l-130 -77 -140 69 c-210 103 -289 144 -292 154 -2 4 138 59 310 122 171 63
350 128 397 146 47 18 117 43 155 58 39 14 131 47 205 75 74 27 187 69 250 92
63 23 133 48 155 57 108 41 250 94 400 148 72 25 157 57 190 70 66 27 79 30
71 16z m103 -64 c-26 -23 -120 -112 -210 -198 -90 -86 -180 -172 -199 -190
-19 -18 -118 -112 -219 -208 -101 -97 -195 -187 -210 -200 -14 -13 -107 -101
-206 -196 -99 -94 -213 -202 -253 -241 -68 -63 -95 -101 -174 -244 -14 -25
-35 -63 -48 -85 -13 -22 -38 -68 -57 -102 -19 -35 -38 -65 -43 -68 -4 -2 -10
12 -14 33 -17 102 -116 643 -122 668 -5 19 8 30 93 79 86 51 171 101 548 325
45 27 103 60 130 75 28 16 61 36 75 45 14 9 45 28 70 42 25 14 194 113 375
220 495 292 500 295 505 291 3 -3 -16 -23 -41 -46z"/>
</g>
</svg>
