 <svg  version="1.0" xmlns="http://www.w3.org/2000/svg"  width="969.000000pt" height="921.000000pt" viewBox="0 0 969.000000 921.000000"  preserveAspectRatio="xMidYMid meet">  <g transform="translate(0.000000,921.000000) scale(0.100000,-0.100000)" fill="#000000" stroke="none"> <path d="M7310 8876 c-25 -7 -106 -37 -180 -65 -74 -29 -164 -64 -200 -78 -80 -30 -173 -67 -305 -121 -55 -23 -179 -73 -275 -112 -96 -39 -195 -80 -220 -90 -187 -79 -260 -108 -365 -146 -129 -46 -430 -166 -550 -220 -50 -22 -277 -114 -330 -134 -27 -10 -93 -37 -145 -60 -52 -23 -127 -52 -166 -65 -77 -26 -328 -124 -409 -160 -82 -36 -143 -61 -270 -111 -66 -26 -154 -61 -195 -79 -132 -57 -242 -102 -342 -140 -54 -20 -118 -51 -144 -68 -72 -47 -149 -148 -184 -240 -33 -87 -37 -144 -18 -255 15 -88 8 -113 -40 -140 -56 -31 -124 -104 -156 -167 -30 -59 -38 -63 -82 -40 -16 8 -53 20 -82 27 -83 18 -150 -7 -227 -86 -33 -33 -68 -76 -77 -93 -20 -38 -43 -42 -91 -16 -56 29 -154 23 -297 -21 -96 -29 -138 -47 -181 -79 -71 -53 -143 -133 -201 -222 -25 -39 -52 -76 -60 -82 -7 -6 -56 -28 -108 -48 -52 -20 -133 -54 -180 -75 -47 -21 -121 -52 -165 -70 -122 -48 -165 -70 -221 -111 -150 -110 -213 -267 -169 -422 22 -81 104 -296 200 -527 42 -102 87 -213 101 -248 66 -171 146 -273 257 -327 56 -27 62 -28 165 -22 104 6 160 18 232 51 19 8 103 41 185 72 83 31 200 76 260 100 115 46 159 52 265 36 25 -4 77 -4 115 -1 80 8 132 27 615 224 310 126 375 152 407 159 15 4 64 22 108 40 184 77 193 79 224 66 16 -6 44 -26 63 -44 18 -18 66 -54 106 -79 90 -58 102 -81 79 -146 -16 -46 -33 -77 -191 -343 -126 -212 -141 -239 -179 -308 -87 -162 -343 -606 -402 -700 -21 -34 -95 -162 -141 -245 -12 -22 -42 -76 -66 -120 -64 -117 -132 -234 -213 -370 -143 -240 -160 -268 -247 -432 -27 -51 -94 -168 -149 -260 -196 -329 -220 -402 -170 -526 24 -60 125 -139 199 -156 120 -26 260 68 342 230 12 24 37 69 55 99 18 30 63 109 101 175 37 66 86 149 109 185 23 36 60 99 82 140 23 41 56 101 75 132 18 31 54 96 81 145 26 48 51 95 57 103 5 8 32 54 61 102 28 48 62 97 76 110 34 32 81 31 418 -7 72 -8 193 -21 270 -30 77 -8 190 -20 250 -25 144 -13 166 -20 187 -56 16 -28 18 -99 26 -895 l8 -864 23 -53 c47 -104 170 -182 267 -168 86 11 179 79 222 159 32 62 32 50 35 1124 l2 703 25 25 c26 25 35 28 235 60 55 9 134 23 175 31 41 8 113 21 160 29 47 7 144 24 215 36 72 13 161 23 198 23 65 1 70 -1 93 -29 13 -16 40 -61 60 -100 20 -38 58 -109 85 -157 26 -47 83 -155 125 -240 42 -84 97 -189 122 -233 82 -144 241 -438 300 -553 95 -190 199 -282 318 -282 72 0 130 28 187 89 61 65 77 104 77 185 0 63 -4 73 -99 258 -54 106 -120 229 -146 273 -26 44 -81 149 -123 234 -41 85 -102 202 -135 260 -33 58 -73 131 -89 161 -17 30 -75 137 -130 237 -54 101 -108 204 -119 230 -40 93 -63 138 -96 190 -18 29 -33 55 -33 59 0 3 -15 32 -34 63 -35 58 -68 117 -131 236 -21 39 -41 75 -45 80 -4 6 -48 89 -97 185 -120 233 -185 355 -274 515 -18 33 -39 74 -47 90 -8 17 -20 37 -27 45 -26 31 -125 234 -125 255 0 12 15 65 32 116 32 93 33 96 33 289 1 224 3 230 80 259 28 11 77 31 110 46 33 15 166 69 295 121 129 52 242 98 251 103 28 16 172 72 270 106 53 18 157 58 230 90 148 62 227 95 369 150 52 21 147 62 210 92 63 30 142 63 175 73 33 10 103 35 155 55 52 20 115 43 140 52 25 8 84 35 132 60 183 94 288 263 288 465 0 57 7 65 112 120 121 63 239 183 296 300 51 104 62 158 62 295 0 118 -13 165 -102 376 -28 67 -63 154 -79 192 -114 286 -227 537 -263 587 -85 115 -201 196 -345 239 -63 19 -89 21 -185 16 -91 -4 -126 -10 -195 -36 -47 -17 -91 -31 -98 -31 -7 0 -47 32 -90 71 -46 42 -105 84 -143 102 -57 28 -77 32 -160 33 -55 2 -114 -3 -140 -10z m278 -117 c59 -29 159 -128 167 -165 9 -40 27 -76 42 -81 7 -3 23 8 37 24 27 32 125 83 207 107 70 20 178 21 226 1 19 -8 45 -15 57 -15 11 0 30 -7 40 -15 11 -8 28 -15 37 -15 10 0 19 -3 21 -7 2 -5 23 -21 47 -38 87 -59 132 -116 179 -225 8 -19 21 -48 28 -63 8 -16 14 -37 14 -47 0 -9 7 -23 15 -30 8 -7 15 -19 15 -27 0 -8 6 -27 13 -41 8 -15 21 -42 30 -60 9 -19 17 -40 17 -49 0 -8 6 -27 13 -41 8 -15 21 -42 30 -60 9 -19 17 -40 17 -49 0 -8 6 -27 13 -41 8 -15 21 -44 30 -65 9 -20 24 -54 33 -75 8 -20 22 -50 30 -65 8 -16 14 -36 14 -46 0 -9 5 -22 12 -29 40 -40 64 -302 34 -361 -9 -16 -16 -39 -16 -49 0 -11 -7 -25 -15 -32 -8 -7 -15 -19 -15 -27 0 -21 -83 -125 -137 -171 -79 -68 -202 -121 -284 -122 -36 0 -69 -23 -50 -34 28 -17 51 -95 51 -169 0 -66 -5 -87 -31 -141 -17 -34 -47 -81 -67 -103 -37 -40 -132 -103 -155 -103 -7 0 -22 -7 -33 -15 -10 -8 -28 -15 -39 -15 -11 0 -33 -7 -49 -15 -15 -8 -35 -15 -43 -15 -8 0 -27 -6 -41 -13 -15 -8 -42 -21 -60 -30 -19 -9 -41 -17 -50 -17 -9 0 -26 -7 -36 -15 -12 -9 -42 -15 -77 -15 -72 0 -94 -7 -78 -26 14 -17 3 -34 -23 -34 -11 0 -32 -6 -46 -13 -15 -8 -45 -22 -67 -31 -22 -10 -53 -24 -68 -32 -16 -8 -35 -14 -42 -14 -7 0 -27 -7 -44 -15 -17 -8 -45 -22 -62 -30 -17 -8 -37 -15 -44 -15 -7 0 -26 -6 -42 -14 -36 -18 -84 -38 -153 -66 -30 -12 -59 -26 -65 -31 -5 -5 -17 -9 -26 -9 -10 0 -30 -6 -46 -14 -67 -32 -154 -65 -193 -73 -14 -2 -40 -11 -57 -19 -18 -8 -49 -21 -68 -29 -19 -8 -52 -22 -73 -31 -20 -9 -53 -23 -72 -31 -19 -8 -48 -21 -63 -29 -16 -8 -35 -14 -44 -14 -8 0 -27 -6 -41 -13 -15 -8 -42 -21 -60 -30 -19 -9 -40 -17 -49 -17 -8 0 -27 -6 -41 -13 -26 -14 -61 -29 -139 -63 -21 -9 -51 -23 -66 -30 -16 -8 -35 -14 -42 -14 -7 0 -28 -7 -47 -16 -75 -37 -90 -44 -103 -44 -7 0 -34 -9 -59 -21 -37 -16 -46 -24 -41 -37 4 -9 11 -29 15 -43 4 -14 13 -36 19 -48 7 -13 12 -80 12 -181 0 -161 -9 -216 -47 -292 -8 -14 -14 -33 -14 -41 0 -8 -6 -20 -14 -26 -8 -7 -18 -26 -21 -42 -5 -24 -1 -34 25 -61 17 -17 36 -41 41 -52 5 -12 14 -30 21 -41 14 -25 21 -38 53 -100 14 -27 34 -63 45 -80 11 -16 24 -39 30 -50 5 -11 14 -27 19 -35 5 -8 12 -22 15 -30 4 -8 22 -42 40 -75 19 -33 53 -96 76 -140 22 -44 45 -87 49 -95 5 -8 18 -35 30 -60 12 -25 38 -72 56 -105 19 -33 37 -67 40 -75 4 -8 10 -22 15 -30 5 -8 21 -37 35 -65 14 -27 48 -90 75 -140 27 -49 54 -99 60 -110 6 -11 19 -33 29 -50 11 -16 36 -64 57 -105 20 -41 49 -88 65 -105 15 -16 33 -50 39 -75 12 -47 47 -123 80 -175 10 -16 31 -52 45 -80 14 -27 48 -90 75 -140 26 -49 60 -113 74 -142 14 -28 31 -55 36 -58 6 -3 10 -12 10 -20 0 -8 12 -33 28 -57 41 -64 49 -78 77 -133 14 -27 29 -57 34 -65 4 -8 15 -31 23 -50 24 -55 56 -120 93 -185 19 -33 39 -69 45 -80 6 -11 26 -47 44 -80 19 -33 46 -82 60 -110 15 -27 31 -58 36 -67 20 -36 30 -54 51 -98 12 -25 28 -52 34 -60 7 -8 18 -32 25 -53 26 -81 -32 -178 -126 -212 -49 -17 -53 -17 -97 0 -51 19 -117 79 -117 105 0 10 -7 23 -15 30 -8 7 -15 18 -15 25 0 6 -11 32 -25 56 -14 24 -27 50 -30 57 -3 6 -7 18 -10 25 -3 6 -21 39 -39 72 -19 33 -46 83 -60 110 -26 48 -35 65 -56 103 -6 9 -15 28 -21 42 -6 14 -20 38 -32 55 -12 16 -33 50 -45 75 -13 25 -27 53 -32 63 -6 9 -14 25 -20 35 -5 9 -21 40 -35 67 -14 28 -29 57 -34 65 -5 8 -12 22 -15 30 -3 8 -10 22 -15 30 -5 8 -17 33 -26 55 -10 22 -22 47 -26 55 -5 8 -14 24 -19 35 -6 11 -19 34 -30 50 -10 17 -30 53 -45 80 -14 28 -30 58 -35 68 -22 39 -30 54 -55 104 -14 28 -30 55 -35 58 -6 3 -10 14 -10 23 0 9 -9 28 -19 42 l-19 24 -55 -17 c-29 -9 -69 -17 -88 -17 -19 0 -56 -7 -83 -15 -27 -8 -68 -15 -90 -15 -23 0 -66 -7 -96 -15 -30 -8 -72 -15 -93 -15 -21 0 -66 -6 -100 -14 -74 -18 -176 -35 -272 -46 -38 -5 -83 -13 -98 -19 -16 -6 -49 -11 -73 -11 -25 0 -64 -4 -87 -9 -23 -6 -53 -12 -67 -15 l-25 -5 3 -936 c3 -929 3 -937 -18 -979 -42 -88 -121 -127 -211 -106 -38 9 -58 22 -89 57 l-40 46 0 958 0 959 -72 0 c-40 0 -113 7 -163 15 -49 8 -119 15 -155 15 -36 0 -100 7 -143 15 -43 8 -109 15 -145 15 -37 0 -107 7 -157 15 -49 8 -117 15 -150 15 -33 0 -96 7 -140 15 -44 8 -103 14 -132 15 l-52 0 -26 -52 c-14 -29 -39 -75 -56 -103 -16 -27 -37 -63 -45 -80 -22 -43 -36 -66 -64 -105 -29 -41 -47 -69 -55 -90 -4 -8 -12 -28 -20 -45 -7 -16 -16 -37 -19 -45 -3 -8 -15 -28 -26 -45 -11 -16 -24 -39 -30 -50 -6 -11 -19 -33 -30 -50 -10 -16 -30 -52 -45 -80 -27 -52 -47 -87 -55 -95 -12 -12 -47 -68 -65 -105 -11 -22 -23 -42 -27 -45 -4 -3 -12 -17 -18 -30 -5 -14 -19 -38 -30 -55 -11 -16 -24 -39 -30 -50 -5 -11 -26 -47 -45 -80 -19 -33 -38 -67 -41 -75 -3 -8 -8 -19 -10 -25 -2 -5 -13 -23 -24 -40 -11 -16 -23 -36 -27 -44 -37 -78 -162 -107 -243 -56 -53 33 -90 93 -90 144 0 37 25 89 101 211 5 8 14 24 19 35 6 11 19 34 30 50 10 17 29 50 42 75 12 25 34 61 49 80 14 19 29 42 32 50 4 8 21 38 37 65 26 43 63 116 84 165 3 8 15 29 26 45 11 17 24 39 30 50 5 11 16 29 22 40 12 17 24 37 75 120 7 11 17 29 23 40 6 11 24 43 41 70 16 28 37 64 45 80 8 17 23 44 34 60 21 33 34 56 72 127 14 26 34 59 45 75 26 37 63 111 63 124 0 6 14 28 30 49 17 21 30 45 30 53 0 9 5 19 11 22 5 4 15 17 20 28 5 12 18 36 29 52 11 17 24 39 30 50 10 21 17 32 60 100 14 22 29 47 33 55 4 8 16 29 27 45 11 17 24 39 30 50 5 11 26 47 45 80 19 33 39 69 45 80 6 11 24 43 40 70 17 28 44 77 60 110 17 33 39 74 50 90 11 17 24 39 30 50 6 11 19 34 30 50 11 17 23 37 26 45 3 8 8 20 10 25 2 6 13 24 24 40 11 17 24 39 30 50 6 11 19 34 30 50 11 17 24 39 29 51 5 12 27 48 48 80 53 82 61 97 114 194 14 25 33 57 43 72 21 32 16 87 -9 108 -8 7 -15 20 -15 29 0 28 -30 61 -55 61 -13 0 -27 4 -30 10 -3 5 -24 14 -46 20 -50 14 -114 76 -151 145 -15 28 -32 49 -40 47 -13 -4 -140 -61 -191 -88 -16 -7 -35 -14 -42 -14 -7 0 -26 -6 -42 -14 -67 -32 -154 -65 -193 -73 -28 -5 -57 -17 -150 -62 -36 -17 -71 -31 -78 -31 -8 0 -26 -6 -40 -13 -15 -8 -42 -21 -60 -30 -19 -9 -40 -17 -49 -17 -8 0 -27 -6 -41 -13 -15 -8 -42 -21 -60 -30 -19 -9 -40 -17 -49 -17 -8 0 -27 -6 -41 -14 -26 -13 -63 -30 -137 -61 -19 -8 -50 -21 -68 -28 -131 -56 -244 -63 -322 -21 l-49 25 -50 -25 c-28 -14 -56 -26 -63 -26 -6 0 -25 -7 -42 -15 -17 -8 -45 -22 -62 -30 -17 -8 -37 -15 -44 -15 -7 0 -26 -6 -42 -14 -50 -24 -97 -44 -118 -49 -37 -9 -90 -30 -180 -68 -81 -34 -106 -42 -180 -54 -163 -26 -279 29 -329 155 -10 25 -24 58 -32 73 -8 16 -14 35 -14 42 0 7 -6 26 -14 42 -18 38 -40 88 -61 143 -16 43 -27 70 -59 145 -38 88 -49 112 -62 138 -8 16 -14 35 -14 44 0 8 -6 27 -13 41 -34 67 -67 154 -75 197 -2 17 -11 39 -18 50 -26 37 -16 94 33 188 32 61 123 131 223 171 25 10 59 24 75 31 17 7 50 20 75 30 25 9 72 30 105 46 33 16 66 29 73 29 8 0 26 6 40 14 37 19 91 37 127 44 17 2 39 11 50 18 11 8 29 14 40 14 30 0 45 19 45 55 0 17 7 40 15 51 8 10 15 25 15 33 0 32 113 152 153 161 15 4 22 14 22 30 0 24 3 25 67 28 43 2 71 8 78 17 7 8 22 15 34 15 12 0 27 5 33 11 17 17 85 29 130 23 27 -4 51 -16 70 -35 15 -16 34 -29 41 -29 7 0 12 -13 12 -29 0 -17 5 -33 10 -36 17 -10 11 -73 -9 -113 -30 -57 -62 -87 -111 -106 -25 -10 -58 -24 -75 -31 -16 -7 -50 -19 -74 -26 -56 -17 -61 -29 -33 -79 5 -8 16 -32 25 -53 42 -96 50 -114 63 -140 8 -16 14 -35 14 -44 0 -8 6 -27 13 -41 8 -15 21 -42 30 -60 9 -19 17 -40 17 -49 0 -8 7 -28 15 -44 37 -72 43 -86 50 -116 3 -18 11 -35 16 -38 5 -4 9 -17 9 -30 0 -13 7 -37 15 -54 8 -17 22 -45 30 -62 8 -17 15 -37 15 -44 0 -7 7 -27 15 -44 8 -17 22 -45 30 -62 8 -17 15 -40 15 -52 0 -25 27 -57 50 -57 9 0 25 7 36 15 10 8 28 15 40 15 11 0 29 7 40 15 10 8 27 15 36 15 9 0 29 6 45 14 74 37 164 76 176 76 7 0 22 7 33 15 10 8 27 15 36 15 9 0 29 6 45 14 15 7 46 21 68 31 22 9 53 23 68 31 16 8 35 14 44 14 8 0 27 6 41 13 27 14 73 35 142 64 19 8 48 21 63 29 16 8 35 14 44 14 8 0 27 6 41 13 15 8 42 21 60 30 19 9 41 17 51 17 9 0 25 6 36 13 11 8 34 17 52 20 18 4 48 13 67 21 35 15 35 15 21 43 -8 15 -16 35 -19 43 -3 8 -10 22 -14 30 -26 45 -42 83 -42 97 0 8 -6 27 -13 41 -8 15 -21 42 -30 60 -9 19 -17 40 -17 49 0 8 -6 27 -13 41 -8 15 -21 43 -29 62 -8 19 -23 53 -33 75 -23 53 -39 90 -60 145 -20 53 -41 102 -62 147 -9 18 -13 38 -10 47 3 8 -3 22 -14 32 -10 9 -19 27 -19 38 0 12 -7 30 -15 40 -8 11 -15 30 -15 43 0 13 -6 24 -12 24 -26 3 -53 -3 -67 -14 -40 -33 -185 -58 -247 -43 -38 10 -92 73 -99 118 -12 71 2 122 46 166 21 22 49 42 62 45 28 6 81 25 135 49 37 16 42 22 36 41 -3 12 -13 29 -20 38 -8 8 -14 22 -14 29 0 7 -6 21 -13 29 -8 9 -19 46 -26 83 -22 116 10 218 100 320 50 57 118 98 161 98 11 0 32 6 46 13 15 8 42 21 60 30 19 9 40 17 47 17 7 0 27 7 44 15 17 8 45 22 62 30 17 8 39 15 49 15 9 0 23 7 30 15 7 8 20 15 29 15 10 0 26 7 37 15 10 8 27 15 36 15 9 0 30 7 47 15 17 8 45 22 62 30 17 8 37 15 44 15 7 0 27 7 44 15 17 8 45 22 62 30 17 8 37 15 44 15 7 0 26 7 42 14 15 8 35 17 43 20 8 3 22 10 30 15 8 5 35 17 60 26 56 21 106 42 143 61 16 8 35 14 42 14 7 0 26 6 42 14 42 21 94 38 130 43 18 3 38 11 44 19 6 8 17 14 24 14 13 0 28 7 103 44 19 9 40 16 49 16 8 0 27 6 41 13 15 8 42 21 60 30 19 9 40 17 47 17 7 0 27 7 44 15 17 8 45 22 62 30 17 8 39 15 49 15 9 0 23 7 30 15 7 8 20 15 29 15 10 0 26 7 37 15 10 8 27 15 36 15 16 0 30 6 106 44 19 9 40 16 47 16 7 0 27 7 44 15 17 8 45 22 62 30 17 8 36 15 42 15 6 0 39 13 72 28 70 33 120 52 155 59 14 2 40 11 58 19 17 8 49 21 70 30 20 9 50 22 65 30 16 8 36 14 45 14 9 0 26 7 36 15 11 8 30 15 42 15 12 0 27 7 34 15 7 8 19 15 27 15 8 0 27 6 41 13 15 8 42 21 60 30 19 9 40 17 49 17 8 0 27 6 41 13 15 8 42 21 60 30 19 9 40 17 49 17 8 0 27 6 41 13 27 14 73 35 142 64 19 8 48 21 63 29 16 8 35 14 42 14 7 0 26 6 42 14 26 13 56 26 128 56 17 7 44 16 60 20 44 12 92 30 163 62 34 15 68 28 75 28 7 0 22 6 33 14 47 33 230 30 302 -5z m-4875 -2470 c20 -17 37 -36 37 -44 0 -7 7 -18 15 -25 10 -8 15 -31 15 -70 0 -49 -3 -58 -23 -69 -16 -9 -23 -20 -20 -34 6 -39 -40 -62 -127 -62 -85 0 -129 22 -130 63 0 12 -7 25 -15 29 -9 3 -23 22 -31 42 -14 32 -13 39 3 76 41 94 82 123 173 124 59 1 69 -2 103 -30z m267 -204 c35 -13 63 -16 125 -12 44 3 89 9 101 12 36 11 63 -26 120 -165 30 -74 59 -146 64 -160 4 -14 18 -47 30 -75 29 -65 85 -201 121 -293 48 -121 37 -155 -56 -190 -69 -25 -215 -83 -290 -115 -132 -56 -245 -102 -340 -140 -49 -20 -138 -56 -197 -81 -144 -59 -159 -62 -185 -34 -29 32 -50 76 -94 198 -21 58 -63 168 -95 245 -138 341 -138 339 -120 374 9 17 37 39 72 57 65 33 144 122 170 192 9 23 22 42 28 42 7 0 32 -10 57 -22 53 -26 143 -35 193 -18 54 18 140 101 165 161 21 48 24 51 54 46 18 -3 52 -13 77 -22z"/> <path d="M7386 8435 c-11 -8 -27 -15 -37 -15 -9 0 -22 -7 -29 -15 -7 -8 -21 -15 -32 -15 -11 0 -32 -6 -46 -13 -29 -15 -85 -41 -142 -65 -19 -8 -48 -21 -63 -28 -16 -8 -35 -14 -42 -14 -7 0 -26 -6 -42 -14 -55 -27 -108 -48 -213 -86 -19 -7 -47 -15 -62 -17 -15 -3 -33 -11 -39 -19 -6 -8 -17 -14 -25 -14 -7 0 -30 -7 -51 -16 -78 -33 -99 -42 -143 -59 -57 -22 -107 -43 -143 -61 -16 -8 -34 -14 -41 -14 -7 0 -39 -13 -71 -30 -32 -16 -65 -30 -73 -30 -8 0 -26 -6 -40 -13 -15 -8 -42 -21 -60 -30 -19 -9 -40 -17 -49 -17 -8 0 -27 -6 -41 -13 -15 -8 -42 -21 -60 -30 -19 -9 -40 -17 -49 -17 -8 0 -27 -6 -41 -13 -27 -14 -75 -35 -134 -61 -45 -19 -96 -36 -137 -46 -18 -5 -38 -13 -44 -19 -6 -6 -19 -11 -28 -11 -10 0 -31 -7 -48 -15 -17 -8 -45 -22 -62 -30 -17 -8 -39 -15 -49 -15 -9 0 -23 -7 -30 -15 -7 -8 -20 -15 -29 -15 -10 0 -26 -7 -37 -15 -10 -8 -27 -15 -36 -15 -9 0 -30 -7 -47 -15 -17 -8 -45 -22 -62 -30 -17 -8 -37 -15 -44 -15 -7 0 -28 -7 -47 -16 -75 -38 -90 -44 -103 -44 -12 0 -51 -17 -95 -42 -16 -8 -20 -10 -85 -35 -51 -19 -102 -41 -138 -59 -16 -8 -35 -14 -44 -14 -8 0 -27 -6 -41 -13 -49 -25 -97 -44 -157 -62 -60 -19 -82 -27 -143 -58 -19 -9 -40 -17 -49 -17 -8 0 -27 -6 -41 -13 -15 -8 -42 -21 -60 -30 -19 -9 -40 -17 -47 -17 -7 0 -27 -7 -44 -15 -17 -8 -45 -22 -62 -30 -17 -8 -39 -15 -49 -15 -9 0 -23 -7 -30 -15 -7 -8 -20 -15 -29 -15 -10 0 -26 -7 -37 -15 -10 -8 -27 -15 -36 -15 -9 0 -29 -6 -45 -14 -57 -29 -104 -46 -123 -46 -15 0 -20 -7 -20 -29 0 -16 7 -34 15 -41 8 -7 15 -19 15 -27 0 -8 6 -27 13 -41 8 -15 21 -43 29 -62 27 -63 50 -115 64 -143 8 -16 14 -35 14 -44 0 -8 6 -27 13 -41 8 -15 21 -42 30 -60 9 -19 17 -40 17 -49 0 -8 6 -27 13 -41 22 -44 44 -94 62 -147 10 -27 23 -53 29 -57 6 -4 11 -23 13 -43 1 -21 9 -48 17 -61 9 -13 16 -30 16 -38 0 -8 7 -28 15 -45 8 -17 22 -45 30 -62 8 -17 15 -37 15 -44 0 -7 6 -26 14 -42 40 -77 76 -160 76 -172 0 -7 6 -25 13 -39 8 -15 21 -42 30 -60 9 -19 17 -40 17 -49 0 -8 6 -27 13 -41 8 -15 21 -42 30 -60 9 -19 17 -40 17 -49 0 -8 6 -27 13 -41 8 -15 22 -45 31 -67 10 -22 24 -53 32 -68 8 -16 14 -35 14 -42 0 -23 33 -85 45 -85 6 0 38 14 70 30 32 17 64 30 71 30 7 0 26 7 43 15 17 8 45 22 62 30 17 8 37 15 44 15 7 0 26 6 42 14 58 28 146 62 188 73 21 5 68 25 118 49 16 8 35 14 42 14 7 0 26 6 42 14 15 7 46 21 68 31 22 9 53 23 68 31 16 8 36 14 46 14 9 0 26 7 37 15 10 8 26 15 35 15 9 0 22 7 29 15 7 8 21 15 32 15 11 0 32 6 46 13 15 8 42 21 60 30 19 9 40 17 49 17 8 0 27 6 41 13 15 8 42 21 60 30 19 9 40 17 47 17 7 0 26 6 42 14 15 7 45 21 66 30 20 9 54 23 75 32 20 9 50 23 65 30 16 8 37 14 47 14 10 0 21 4 24 9 3 4 38 18 78 30 40 12 86 29 101 37 16 8 36 14 45 14 9 0 26 7 36 15 11 8 27 15 37 15 9 0 22 7 29 15 7 8 21 15 30 15 10 0 31 6 47 14 38 18 88 40 143 61 57 22 107 43 143 61 16 8 35 14 43 14 8 0 40 14 71 30 31 17 62 30 70 30 8 0 27 6 41 14 15 8 39 17 55 21 23 5 26 8 18 24 -15 27 -5 31 69 31 48 0 71 4 80 15 7 8 22 15 34 15 12 0 31 7 42 15 10 8 26 15 35 15 9 0 22 7 29 15 7 8 22 15 34 15 11 0 34 7 50 15 15 8 36 15 46 15 10 0 32 7 49 15 17 8 45 22 62 30 17 8 37 15 44 15 7 0 27 7 44 15 17 8 45 22 62 30 17 8 36 15 43 15 7 0 39 14 71 30 32 17 64 30 71 30 7 0 25 6 41 14 38 18 88 40 143 61 25 9 59 23 75 30 17 7 48 19 70 28 136 51 140 54 137 84 -2 15 -9 35 -17 43 -7 8 -16 30 -20 47 -3 18 -11 35 -16 38 -5 4 -9 18 -9 32 0 13 -6 37 -13 51 -8 15 -21 42 -30 60 -9 19 -17 40 -17 47 0 7 -7 27 -15 44 -8 17 -22 45 -30 62 -8 17 -15 37 -15 44 0 12 -17 51 -42 95 -8 16 -10 20 -35 85 -19 51 -41 102 -59 138 -8 16 -14 35 -14 44 0 8 -6 27 -13 41 -8 15 -21 42 -30 60 -9 19 -17 40 -17 49 0 8 -6 27 -13 41 -14 27 -35 73 -64 142 -8 19 -21 48 -29 63 -8 16 -14 36 -14 45 0 9 -7 30 -15 46 -8 15 -15 36 -15 46 0 10 -7 32 -15 49 -8 17 -22 45 -30 62 -8 17 -15 39 -15 49 0 9 -7 23 -15 30 -8 7 -15 20 -15 29 0 10 -7 26 -15 37 -8 10 -15 28 -15 40 0 11 -4 24 -9 30 -11 10 -39 84 -50 129 -8 35 -44 44 -75 20z m-4 -146 c11 -6 31 -36 45 -67 48 -108 115 -277 140 -352 25 -77 83 -219 243 -605 51 -121 103 -249 117 -285 14 -36 31 -78 38 -95 16 -39 61 -163 70 -193 4 -13 2 -36 -5 -51 -12 -29 -11 -29 -265 -133 -66 -27 -154 -63 -195 -80 -102 -42 -202 -82 -280 -112 -36 -13 -128 -49 -205 -79 -77 -30 -158 -58 -179 -61 -22 -4 -89 -33 -150 -63 -61 -31 -127 -61 -146 -69 -19 -7 -134 -54 -255 -104 -243 -101 -304 -125 -449 -177 -55 -19 -147 -55 -205 -80 -115 -49 -157 -66 -271 -111 -159 -63 -356 -143 -463 -188 -176 -73 -250 -102 -277 -110 -14 -4 -97 -36 -185 -72 -198 -80 -211 -84 -239 -71 -26 12 -71 91 -114 199 -16 41 -40 100 -52 130 -12 30 -35 87 -50 125 -15 39 -58 142 -95 230 -37 88 -81 198 -97 245 -17 47 -59 157 -95 245 -103 252 -154 384 -168 433 -10 36 18 68 80 91 31 12 74 30 96 42 48 24 437 181 524 211 33 12 134 51 225 88 179 73 430 174 550 222 41 17 95 39 120 49 25 10 102 43 171 73 70 31 133 56 139 56 18 0 663 259 773 309 48 23 92 41 99 41 6 0 40 14 75 30 34 17 68 30 73 30 5 0 40 13 77 29 38 16 95 39 128 51 102 37 310 120 520 206 88 36 106 39 137 23z"/> <path d="M8067 8274 c-20 -13 -51 -43 -67 -66 -25 -34 -30 -51 -30 -95 0 -30 6 -67 13 -81 8 -15 21 -42 30 -60 9 -19 17 -40 17 -47 0 -7 7 -27 15 -44 8 -17 22 -45 30 -62 8 -17 15 -39 15 -49 0 -9 7 -23 15 -30 8 -7 15 -22 15 -34 0 -12 7 -31 15 -42 8 -10 15 -30 15 -42 0 -13 6 -36 13 -50 8 -15 21 -42 30 -60 9 -19 17 -40 17 -49 0 -8 6 -27 13 -41 8 -15 21 -42 30 -60 9 -19 17 -41 17 -51 0 -9 7 -26 15 -37 8 -10 15 -26 15 -35 0 -17 60 -79 77 -79 6 0 16 -7 23 -15 9 -11 32 -15 80 -15 48 0 71 4 80 15 7 8 19 15 26 15 8 0 27 19 44 42 26 36 30 49 30 110 0 39 -6 82 -14 96 -16 33 -35 85 -46 131 -5 18 -13 38 -19 44 -6 6 -11 18 -11 27 0 9 -13 43 -30 75 -16 32 -30 64 -30 71 0 7 -6 25 -14 41 -18 38 -40 88 -61 143 -9 25 -23 59 -30 75 -7 17 -20 50 -30 75 -41 106 -91 180 -121 180 -6 0 -17 7 -24 15 -21 25 -117 19 -163 -11z m138 -112 c38 -24 92 -135 197 -407 11 -27 28 -68 38 -90 57 -125 110 -284 110 -332 0 -66 -69 -104 -125 -67 -42 28 -59 62 -190 404 -37 96 -77 198 -87 225 -41 103 -67 181 -68 202 0 29 47 83 73 83 12 0 36 -8 52 -18z"/> <path d="M1680 5389 c-36 -17 -78 -36 -93 -44 -16 -8 -35 -15 -42 -15 -7 0 -27 -7 -44 -15 -17 -8 -45 -22 -62 -30 -17 -8 -39 -15 -49 -15 -9 0 -23 -7 -30 -15 -7 -8 -19 -15 -28 -15 -8 0 -44 -13 -79 -30 -34 -16 -72 -30 -82 -30 -56 0 -62 -19 -30 -89 12 -25 29 -62 37 -81 8 -19 21 -48 28 -63 8 -16 14 -37 14 -47 0 -9 7 -23 15 -30 8 -7 15 -22 15 -34 0 -11 7 -34 15 -50 8 -15 15 -38 15 -51 0 -12 7 -28 15 -35 8 -7 15 -20 15 -29 0 -10 7 -26 15 -37 8 -10 15 -28 15 -40 0 -11 7 -29 15 -40 8 -10 15 -28 15 -39 0 -11 7 -29 15 -39 8 -11 15 -30 15 -42 0 -35 13 -36 75 -4 32 17 66 30 76 30 9 0 22 7 29 15 7 8 21 15 32 15 11 0 32 6 46 13 15 8 44 21 65 30 20 9 54 24 75 33 20 8 50 22 65 30 16 8 36 14 46 14 9 0 26 7 37 15 10 8 31 15 45 15 14 0 33 8 43 19 16 17 15 21 -10 72 -15 30 -34 70 -42 89 -31 74 -40 96 -57 140 -9 25 -23 58 -31 73 -8 16 -14 35 -14 42 0 7 -7 26 -14 42 -8 15 -17 35 -20 43 -3 8 -10 22 -14 30 -27 47 -42 84 -42 99 0 9 -7 26 -15 37 -8 10 -15 33 -15 51 0 17 -3 34 -7 36 -5 3 -37 -8 -73 -24z m12 -156 c9 -10 27 -40 41 -68 36 -72 157 -380 157 -400 0 -48 -26 -64 -246 -154 -120 -50 -165 -53 -192 -13 -27 40 -161 380 -176 449 -12 53 1 61 289 181 63 26 107 27 127 5z"/> <path d="M5450 5105 c-7 -8 -18 -15 -25 -15 -8 0 -26 -6 -42 -14 -15 -8 -46 -22 -68 -31 -22 -10 -53 -24 -68 -31 -16 -8 -34 -14 -42 -14 -7 0 -18 -7 -25 -15 -7 -8 -21 -15 -32 -15 -11 0 -32 -6 -46 -14 -15 -8 -47 -21 -72 -31 -56 -21 -107 -43 -143 -61 -16 -8 -36 -14 -45 -14 -9 0 -26 -7 -36 -15 -11 -8 -30 -15 -42 -15 -12 0 -27 -7 -34 -15 -7 -8 -19 -15 -27 -15 -8 0 -27 -6 -41 -14 -53 -27 -103 -46 -121 -46 -10 0 -29 -8 -42 -19 l-23 -18 40 -49 c21 -27 55 -65 74 -85 36 -36 124 -99 139 -99 5 0 14 -7 21 -15 7 -8 23 -15 35 -15 12 0 39 -7 58 -15 48 -20 180 -19 248 1 82 24 128 49 194 101 61 49 164 169 165 190 0 6 6 24 14 40 38 76 50 214 26 312 -14 58 -22 67 -40 46z m-70 -180 c35 -42 -27 -200 -113 -287 -94 -94 -203 -134 -344 -126 -114 6 -250 85 -241 141 4 22 89 62 402 187 291 116 274 111 296 85z"/> <path d="M5493 4227 c-11 -7 -39 -24 -61 -39 -23 -16 -47 -28 -53 -28 -6 0 -23 -6 -37 -13 -15 -8 -42 -21 -60 -30 -19 -9 -42 -17 -52 -17 -10 0 -32 -6 -49 -13 l-32 -14 -2 -651 c-1 -419 2 -653 8 -655 5 -2 21 0 35 4 64 19 168 39 200 39 19 0 60 7 90 15 30 8 72 15 93 15 21 0 66 6 100 14 72 17 173 34 272 46 39 5 86 14 105 19 19 6 61 11 92 11 57 0 58 0 58 29 0 16 -7 34 -15 41 -8 7 -15 20 -15 30 0 10 -7 23 -15 30 -8 7 -15 18 -15 25 0 7 -7 18 -15 25 -8 7 -15 19 -15 27 0 8 -13 32 -30 53 -16 21 -30 45 -30 53 0 9 -4 18 -9 22 -6 3 -21 29 -36 58 -14 28 -30 60 -35 70 -19 34 -29 53 -55 102 -14 28 -41 77 -60 110 -19 33 -39 69 -45 80 -6 11 -26 47 -44 80 -51 89 -106 204 -106 219 0 8 -6 19 -14 25 -8 7 -17 23 -20 36 -4 14 -11 25 -16 25 -6 0 -10 9 -10 19 0 11 -4 23 -10 26 -5 3 -22 31 -36 60 -30 64 -34 68 -61 52z m18 -189 c13 -17 58 -103 101 -191 43 -87 87 -171 97 -186 10 -14 44 -75 76 -136 31 -60 65 -123 75 -140 15 -27 92 -170 142 -265 33 -64 18 -105 -42 -113 -19 -3 -170 -28 -334 -56 -164 -28 -308 -51 -319 -51 -11 0 -29 7 -39 17 -17 15 -18 45 -18 528 0 504 0 513 21 539 24 30 44 42 114 67 74 27 100 25 126 -13z"/> <path d="M4430 4188 c-6 -13 -20 -39 -31 -58 -12 -19 -32 -55 -46 -80 -13 -25 -33 -58 -43 -75 -43 -69 -120 -215 -120 -227 0 -6 -12 -27 -27 -47 -34 -44 -46 -63 -75 -121 -13 -25 -26 -47 -30 -50 -4 -3 -12 -17 -18 -30 -5 -14 -19 -38 -30 -55 -11 -16 -24 -39 -30 -50 -5 -11 -26 -47 -45 -80 -19 -33 -38 -67 -42 -75 -3 -8 -18 -31 -32 -50 -15 -19 -36 -53 -48 -75 -11 -22 -30 -56 -41 -75 -12 -19 -32 -58 -46 -87 -14 -28 -31 -53 -38 -55 -6 -2 -9 -11 -6 -20 6 -16 21 -18 288 -38 69 -6 148 -14 175 -19 28 -6 79 -10 115 -11 36 0 106 -7 155 -15 50 -8 119 -15 155 -15 36 0 92 -7 123 -15 32 -8 67 -15 78 -15 19 0 19 10 17 662 l-3 662 -50 14 c-27 7 -63 20 -78 28 -16 8 -37 14 -47 14 -9 0 -23 7 -30 15 -7 8 -21 15 -31 15 -10 0 -21 5 -24 10 -5 9 -69 40 -81 40 -3 0 -9 -10 -14 -22z m159 -158 c21 -10 50 -33 65 -50 l26 -32 0 -518 0 -518 -27 -18 c-29 -18 -64 -17 -373 16 -41 5 -144 15 -229 24 -85 9 -158 19 -162 22 -21 13 -7 73 34 144 195 335 387 670 387 674 0 13 126 225 148 249 31 33 76 36 131 7z"/> </g> </svg> 